<svg width="20" height="20" viewBox="0 0 20 20" fill="none" xmlns="http://www.w3.org/2000/svg">
<g clip-path="url(#clip0_701_659)">
<path fill-rule="evenodd" clip-rule="evenodd" d="M17.8021 12.298C17.8021 12.298 19.4191 13.895 19.8191 14.634C19.8269 14.6446 19.8329 14.6565 19.8371 14.669C20.0001 14.942 20.0401 15.156 19.9601 15.314C19.8251 15.575 19.3681 15.706 19.2131 15.717H16.3551C16.1561 15.717 15.7421 15.665 15.2381 15.317C14.8531 15.048 14.4701 14.605 14.0991 14.172C13.5451 13.529 13.0661 12.971 12.5811 12.971C12.5198 12.9709 12.459 12.981 12.4011 13.001C12.0341 13.117 11.5681 13.64 11.5681 15.033C11.5681 15.469 11.2241 15.717 10.9831 15.717H9.67409C9.22809 15.717 6.90609 15.561 4.84709 13.39C2.32409 10.732 0.05809 5.39999 0.03609 5.35299C-0.10491 5.00799 0.19109 4.81999 0.51109 4.81999H3.39709C3.78409 4.81999 3.91009 5.05399 3.99809 5.26399C4.10009 5.50499 4.47809 6.46899 5.09809 7.55199C6.10209 9.31399 6.71909 10.031 7.21209 10.031C7.30471 10.0313 7.39577 10.0071 7.47609 9.96099C8.12009 9.60699 8.00009 7.30699 7.97009 6.83299C7.97009 6.74099 7.96909 5.80599 7.63909 5.35399C7.40309 5.02999 7.00109 4.90399 6.75809 4.85799C6.82309 4.76399 6.96109 4.61999 7.13809 4.53499C7.57909 4.31499 8.37609 4.28299 9.16709 4.28299H9.60609C10.4641 4.29499 10.6861 4.34999 10.9981 4.42899C11.6261 4.57899 11.6381 4.98599 11.5831 6.37199C11.5671 6.76799 11.5501 7.21399 11.5501 7.73899C11.5501 7.85099 11.5451 7.97599 11.5451 8.10299C11.5261 8.81399 11.5011 9.61499 12.0031 9.94399C12.0682 9.98455 12.1434 10.006 12.2201 10.006C12.3941 10.006 12.9151 10.006 14.3281 7.58099C14.9481 6.50999 15.4281 5.24699 15.4611 5.15199C15.4891 5.09899 15.5731 4.94999 15.6751 4.88999C15.7476 4.85138 15.8289 4.8321 15.9111 4.83399H19.3061C19.6761 4.83399 19.9271 4.88999 19.9761 5.02999C20.0581 5.25699 19.9601 5.94999 18.4101 8.04599C18.1491 8.39499 17.9201 8.69699 17.7191 8.96099C16.3141 10.805 16.3141 10.898 17.8021 12.298Z" fill="white"/>
</g>
<defs>
<clipPath id="clip0_701_659">
<rect width="20" height="20" fill="white"/>
</clipPath>
</defs>
</svg>
